<?xml version="1.0" standalone="no"?>
<!DOCTYPE svg PUBLIC "-//W3C//DTD SVG 20010904//EN"
 "http://www.w3.org/TR/2001/REC-SVG-20010904/DTD/svg10.dtd">
<svg version="1.0" xmlns="http://www.w3.org/2000/svg"
 width="60.000000pt" height="66.000000pt" viewBox="0 0 60.000000 66.000000"
 preserveAspectRatio="xMidYMid meet">

<g transform="translate(0.000000,66.000000) scale(0.100000,-0.100000)"
fill="#000000" stroke="none">
<path d="M256 650 c-106 -32 -136 -174 -52 -248 59 -52 141 -50 198 5 79 76
44 213 -63 243 -39 11 -44 11 -83 0z m103 -44 c68 -36 68 -156 0 -192 -82 -42
-170 9 -169 98 1 87 89 135 169 94z"/>
<path d="M167 314 c-67 -21 -131 -86 -151 -155 -19 -63 -21 -130 -4 -147 8 -8
54 -12 142 -12 l130 0 -52 53 c-29 29 -52 60 -52 68 0 8 14 55 30 104 17 49
30 92 30 97 0 11 -17 9 -73 -8z m-1 -112 c-28 -83 -27 -102 7 -139 l20 -23
-76 0 -77 0 0 50 c0 56 24 112 62 146 25 23 81 54 87 49 1 -2 -9 -39 -23 -83z"/>
<path d="M360 322 c0 -5 14 -48 30 -97 17 -49 30 -96 30 -104 0 -8 -23 -39
-52 -68 l-52 -53 130 0 c88 0 134 4 142 12 17 17 15 84 -4 147 -10 37 -29 66
-59 96 -30 30 -59 49 -96 59 -60 18 -69 19 -69 8z m146 -94 c36 -39 54 -85 54
-138 l0 -50 -77 0 -76 0 20 23 c33 36 35 59 8 137 -14 40 -25 77 -25 82 0 13
72 -27 96 -54z"/>
<path d="M271 199 l-23 -72 26 -26 26 -26 26 26 26 26 -23 72 c-13 39 -26 71
-29 71 -3 0 -16 -32 -29 -71z m39 -54 c0 -8 -4 -15 -10 -15 -5 0 -10 7 -10 15
0 8 5 15 10 15 6 0 10 -7 10 -15z"/>
</g>
</svg>
